<svg xmlns="http://www.w3.org/2000/svg" width="2000" height="1250" viewBox="0 0 2000 1250">

  <defs>
    <marker id="arrow" markerWidth="12" markerHeight="12" refX="10" refY="4" orient="auto" markerUnits="strokeWidth">
      <path d="M0,0 L0,8 L11,4 z" fill="#587089" />
    </marker>
  </defs>
        
<rect x="0" y="0" width="2000" height="1250" style="fill:#eef4fb" />
<text x="72" y="72" style="font-family:Arial,sans-serif;font-size:32px;font-weight:700;fill:#22344d" >warehouse / Database Diagram</text>
<text x="72" y="98" style="font-family:Arial,sans-serif;font-size:14px;font-weight:500;fill:#66758a" >Source: PostgreSQL schema database/warehouse.sql + application auth notes</text>
<g transform="translate(70 150)">
<rect x="0" y="0" width="455" height="342" rx="12" ry="12" style="fill:#ffffff;stroke:#d7e2ef;stroke-width:1.6" />
<rect x="0" y="0" width="455" height="48" rx="12" ry="12" fill="#2563eb" />
<path d="M0 36 H455 V48 H0 Z" fill="#2563eb" />
<text x="18" y="25" style="font-family:Arial,sans-serif;font-size:18px;font-weight:700;fill:#ffffff" >suppliers</text>
<text x="18" y="41" style="font-family:Arial,sans-serif;font-size:11px;font-weight:500;fill:#eaf2ff" >warehouse.suppliers</text>
<text x="20" y="74" style="font-family:Consolas,monospace;font-size:13px;font-weight:500;fill:#25364d" >supplier_code</text>
<rect x="220" y="62" width="26" height="16" rx="4" fill="#2563eb" /><text x="233" y="74" text-anchor="middle" style="font-family:Arial,sans-serif;font-size:9px;font-weight:700;fill:#ffffff">PK</text>
<text x="275" y="74" style="font-family:Consolas,monospace;font-size:11px;font-weight:500;fill:#66758a" >varchar(20)</text>
<line x1="14" y1="86" x2="441" y2="86" style="stroke:#e7edf5;stroke-width:1" />
<text x="20" y="104" style="font-family:Consolas,monospace;font-size:13px;font-weight:500;fill:#25364d" >supplier_name</text>
<text x="275" y="104" style="font-family:Consolas,monospace;font-size:11px;font-weight:500;fill:#66758a" >varchar(200) NOT NULL</text>
<line x1="14" y1="116" x2="441" y2="116" style="stroke:#e7edf5;stroke-width:1" />
<text x="20" y="134" style="font-family:Consolas,monospace;font-size:13px;font-weight:500;fill:#25364d" >inn</text>
<rect x="220" y="122" width="26" height="16" rx="4" fill="#64748b" /><text x="233" y="134" text-anchor="middle" style="font-family:Arial,sans-serif;font-size:9px;font-weight:700;fill:#ffffff">UQ</text>
<text x="275" y="134" style="font-family:Consolas,monospace;font-size:11px;font-weight:500;fill:#66758a" >varchar(12) NOT NULL</text>
<line x1="14" y1="146" x2="441" y2="146" style="stroke:#e7edf5;stroke-width:1" />
<text x="20" y="164" style="font-family:Consolas,monospace;font-size:13px;font-weight:500;fill:#25364d" >legal_postal_code</text>
<text x="275" y="164" style="font-family:Consolas,monospace;font-size:11px;font-weight:500;fill:#66758a" >varchar(10) NOT NULL</text>
<line x1="14" y1="176" x2="441" y2="176" style="stroke:#e7edf5;stroke-width:1" />
<text x="20" y="194" style="font-family:Consolas,monospace;font-size:13px;font-weight:500;fill:#25364d" >legal_city / street / house</text>
<text x="275" y="194" style="font-family:Consolas,monospace;font-size:11px;font-weight:500;fill:#66758a" >varchar NOT NULL</text>
<line x1="14" y1="206" x2="441" y2="206" style="stroke:#e7edf5;stroke-width:1" />
<text x="20" y="224" style="font-family:Consolas,monospace;font-size:13px;font-weight:500;fill:#25364d" >bank_postal_code</text>
<text x="275" y="224" style="font-family:Consolas,monospace;font-size:11px;font-weight:500;fill:#66758a" >varchar(10) NOT NULL</text>
<line x1="14" y1="236" x2="441" y2="236" style="stroke:#e7edf5;stroke-width:1" />
<text x="20" y="254" style="font-family:Consolas,monospace;font-size:13px;font-weight:500;fill:#25364d" >bank_city / street / house</text>
<text x="275" y="254" style="font-family:Consolas,monospace;font-size:11px;font-weight:500;fill:#66758a" >varchar NOT NULL</text>
<line x1="14" y1="266" x2="441" y2="266" style="stroke:#e7edf5;stroke-width:1" />
<text x="20" y="284" style="font-family:Consolas,monospace;font-size:13px;font-weight:500;fill:#25364d" >bank_account_number</text>
<text x="275" y="284" style="font-family:Consolas,monospace;font-size:11px;font-weight:500;fill:#66758a" >varchar(30) NOT NULL</text>
</g>
<g transform="translate(650 120)">
<rect x="0" y="0" width="430" height="222" rx="12" ry="12" style="fill:#ffffff;stroke:#d7e2ef;stroke-width:1.6" />
<rect x="0" y="0" width="430" height="48" rx="12" ry="12" fill="#0f766e" />
<path d="M0 36 H430 V48 H0 Z" fill="#0f766e" />
<text x="18" y="25" style="font-family:Arial,sans-serif;font-size:18px;font-weight:700;fill:#ffffff" >materials</text>
<text x="18" y="41" style="font-family:Arial,sans-serif;font-size:11px;font-weight:500;fill:#eaf2ff" >warehouse.materials</text>
<text x="20" y="74" style="font-family:Consolas,monospace;font-size:13px;font-weight:500;fill:#25364d" >material_code</text>
<rect x="220" y="62" width="26" height="16" rx="4" fill="#0f766e" /><text x="233" y="74" text-anchor="middle" style="font-family:Arial,sans-serif;font-size:9px;font-weight:700;fill:#ffffff">PK</text>
<text x="275" y="74" style="font-family:Consolas,monospace;font-size:11px;font-weight:500;fill:#66758a" >varchar(20)</text>
<line x1="14" y1="86" x2="416" y2="86" style="stroke:#e7edf5;stroke-width:1" />
<text x="20" y="104" style="font-family:Consolas,monospace;font-size:13px;font-weight:500;fill:#25364d" >material_class_code</text>
<text x="275" y="104" style="font-family:Consolas,monospace;font-size:11px;font-weight:500;fill:#66758a" >varchar(20) NOT NULL</text>
<line x1="14" y1="116" x2="416" y2="116" style="stroke:#e7edf5;stroke-width:1" />
<text x="20" y="134" style="font-family:Consolas,monospace;font-size:13px;font-weight:500;fill:#25364d" >material_group_code</text>
<text x="275" y="134" style="font-family:Consolas,monospace;font-size:11px;font-weight:500;fill:#66758a" >varchar(20) NOT NULL</text>
<line x1="14" y1="146" x2="416" y2="146" style="stroke:#e7edf5;stroke-width:1" />
<text x="20" y="164" style="font-family:Consolas,monospace;font-size:13px;font-weight:500;fill:#25364d" >material_name</text>
<text x="275" y="164" style="font-family:Consolas,monospace;font-size:11px;font-weight:500;fill:#66758a" >varchar(200) NOT NULL</text>
<line x1="14" y1="176" x2="416" y2="176" style="stroke:#e7edf5;stroke-width:1" />
<text x="20" y="194" style="font-family:Consolas,monospace;font-size:13px;font-weight:500;fill:#25364d" >material_account</text>
<text x="275" y="194" style="font-family:Consolas,monospace;font-size:11px;font-weight:500;fill:#66758a" >varchar(30) NOT NULL</text>
</g>
<g transform="translate(1280 135)">
<rect x="0" y="0" width="430" height="142" rx="12" ry="12" style="fill:#ffffff;stroke:#d7e2ef;stroke-width:1.6" />
<rect x="0" y="0" width="430" height="48" rx="12" ry="12" fill="#7c3aed" />
<path d="M0 36 H430 V48 H0 Z" fill="#7c3aed" />
<text x="18" y="25" style="font-family:Arial,sans-serif;font-size:18px;font-weight:700;fill:#ffffff" >document_types</text>
<text x="18" y="41" style="font-family:Arial,sans-serif;font-size:11px;font-weight:500;fill:#eaf2ff" >warehouse.document_types</text>
<text x="20" y="74" style="font-family:Consolas,monospace;font-size:13px;font-weight:500;fill:#25364d" >document_type_code</text>
<rect x="220" y="62" width="26" height="16" rx="4" fill="#7c3aed" /><text x="233" y="74" text-anchor="middle" style="font-family:Arial,sans-serif;font-size:9px;font-weight:700;fill:#ffffff">PK</text>
<text x="275" y="74" style="font-family:Consolas,monospace;font-size:11px;font-weight:500;fill:#66758a" >varchar(20)</text>
<line x1="14" y1="86" x2="416" y2="86" style="stroke:#e7edf5;stroke-width:1" />
<text x="20" y="104" style="font-family:Consolas,monospace;font-size:13px;font-weight:500;fill:#25364d" >document_type_name</text>
<text x="275" y="104" style="font-family:Consolas,monospace;font-size:11px;font-weight:500;fill:#66758a" >varchar(120) NOT NULL</text>
</g>
<g transform="translate(670 435)">
<rect x="0" y="0" width="430" height="166" rx="12" ry="12" style="fill:#ffffff;stroke:#d7e2ef;stroke-width:1.6" />
<rect x="0" y="0" width="430" height="48" rx="12" ry="12" fill="#0891b2" />
<path d="M0 36 H430 V48 H0 Z" fill="#0891b2" />
<text x="18" y="25" style="font-family:Arial,sans-serif;font-size:18px;font-weight:700;fill:#ffffff" >measurement_units</text>
<text x="18" y="41" style="font-family:Arial,sans-serif;font-size:11px;font-weight:500;fill:#eaf2ff" >warehouse.measurement_units</text>
<text x="20" y="74" style="font-family:Consolas,monospace;font-size:13px;font-weight:500;fill:#25364d" >material_code</text>
<rect x="220" y="62" width="34" height="16" rx="4" fill="#0891b2" /><text x="237" y="74" text-anchor="middle" style="font-family:Arial,sans-serif;font-size:9px;font-weight:700;fill:#ffffff">PK/FK</text>
<text x="275" y="74" style="font-family:Consolas,monospace;font-size:11px;font-weight:500;fill:#66758a" >varchar(20)</text>
<line x1="14" y1="86" x2="416" y2="86" style="stroke:#e7edf5;stroke-width:1" />
<text x="20" y="104" style="font-family:Consolas,monospace;font-size:13px;font-weight:500;fill:#25364d" >unit_code</text>
<rect x="220" y="92" width="26" height="16" rx="4" fill="#0891b2" /><text x="233" y="104" text-anchor="middle" style="font-family:Arial,sans-serif;font-size:9px;font-weight:700;fill:#ffffff">PK</text>
<text x="275" y="104" style="font-family:Consolas,monospace;font-size:11px;font-weight:500;fill:#66758a" >varchar(20)</text>
<line x1="14" y1="116" x2="416" y2="116" style="stroke:#e7edf5;stroke-width:1" />
<text x="20" y="134" style="font-family:Consolas,monospace;font-size:13px;font-weight:500;fill:#25364d" >unit_name</text>
<text x="275" y="134" style="font-family:Consolas,monospace;font-size:11px;font-weight:500;fill:#66758a" >varchar(80) NOT NULL</text>
</g>
<g transform="translate(490 705)">
<rect x="0" y="0" width="760" height="390" rx="12" ry="12" style="fill:#ffffff;stroke:#d7e2ef;stroke-width:1.6" />
<rect x="0" y="0" width="760" height="48" rx="12" ry="12" fill="#c2410c" />
<path d="M0 36 H760 V48 H0 Z" fill="#c2410c" />
<text x="18" y="25" style="font-family:Arial,sans-serif;font-size:18px;font-weight:700;fill:#ffffff" >storage_units</text>
<text x="18" y="41" style="font-family:Arial,sans-serif;font-size:11px;font-weight:500;fill:#eaf2ff" >warehouse.storage_units</text>
<text x="20" y="74" style="font-family:Consolas,monospace;font-size:13px;font-weight:500;fill:#25364d" >order_number</text>
<rect x="220" y="62" width="26" height="16" rx="4" fill="#c2410c" /><text x="233" y="74" text-anchor="middle" style="font-family:Arial,sans-serif;font-size:9px;font-weight:700;fill:#ffffff">PK</text>
<text x="325" y="74" style="font-family:Consolas,monospace;font-size:12px;font-weight:500;fill:#66758a" >integer</text>
<line x1="14" y1="86" x2="746" y2="86" style="stroke:#e7edf5;stroke-width:1" />
<text x="20" y="104" style="font-family:Consolas,monospace;font-size:13px;font-weight:500;fill:#25364d" >order_date</text>
<text x="325" y="104" style="font-family:Consolas,monospace;font-size:12px;font-weight:500;fill:#66758a" >date NOT NULL</text>
<line x1="14" y1="116" x2="746" y2="116" style="stroke:#e7edf5;stroke-width:1" />
<text x="20" y="134" style="font-family:Consolas,monospace;font-size:13px;font-weight:500;fill:#25364d" >supplier_code</text>
<rect x="220" y="122" width="26" height="16" rx="4" fill="#64748b" /><text x="233" y="134" text-anchor="middle" style="font-family:Arial,sans-serif;font-size:9px;font-weight:700;fill:#ffffff">FK</text>
<text x="325" y="134" style="font-family:Consolas,monospace;font-size:12px;font-weight:500;fill:#66758a" >varchar(20) -&gt; suppliers</text>
<line x1="14" y1="146" x2="746" y2="146" style="stroke:#e7edf5;stroke-width:1" />
<text x="20" y="164" style="font-family:Consolas,monospace;font-size:13px;font-weight:500;fill:#25364d" >balance_account</text>
<text x="325" y="164" style="font-family:Consolas,monospace;font-size:12px;font-weight:500;fill:#66758a" >varchar(30) NOT NULL</text>
<line x1="14" y1="176" x2="746" y2="176" style="stroke:#e7edf5;stroke-width:1" />
<text x="20" y="194" style="font-family:Consolas,monospace;font-size:13px;font-weight:500;fill:#25364d" >document_type_code</text>
<rect x="220" y="182" width="26" height="16" rx="4" fill="#64748b" /><text x="233" y="194" text-anchor="middle" style="font-family:Arial,sans-serif;font-size:9px;font-weight:700;fill:#ffffff">FK</text>
<text x="325" y="194" style="font-family:Consolas,monospace;font-size:12px;font-weight:500;fill:#66758a" >varchar(20) -&gt; document_types</text>
<line x1="14" y1="206" x2="746" y2="206" style="stroke:#e7edf5;stroke-width:1" />
<text x="20" y="224" style="font-family:Consolas,monospace;font-size:13px;font-weight:500;fill:#25364d" >document_number</text>
<text x="325" y="224" style="font-family:Consolas,monospace;font-size:12px;font-weight:500;fill:#66758a" >varchar(50) NOT NULL</text>
<line x1="14" y1="236" x2="746" y2="236" style="stroke:#e7edf5;stroke-width:1" />
<text x="20" y="254" style="font-family:Consolas,monospace;font-size:13px;font-weight:500;fill:#25364d" >material_code</text>
<rect x="220" y="242" width="26" height="16" rx="4" fill="#64748b" /><text x="233" y="254" text-anchor="middle" style="font-family:Arial,sans-serif;font-size:9px;font-weight:700;fill:#ffffff">FK</text>
<text x="325" y="254" style="font-family:Consolas,monospace;font-size:12px;font-weight:500;fill:#66758a" >varchar(20) -&gt; materials</text>
<line x1="14" y1="266" x2="746" y2="266" style="stroke:#e7edf5;stroke-width:1" />
<text x="20" y="284" style="font-family:Consolas,monospace;font-size:13px;font-weight:500;fill:#25364d" >material_account</text>
<text x="325" y="284" style="font-family:Consolas,monospace;font-size:12px;font-weight:500;fill:#66758a" >varchar(30) NOT NULL</text>
<line x1="14" y1="296" x2="746" y2="296" style="stroke:#e7edf5;stroke-width:1" />
<text x="20" y="314" style="font-family:Consolas,monospace;font-size:13px;font-weight:500;fill:#25364d" >unit_code</text>
<rect x="220" y="302" width="26" height="16" rx="4" fill="#64748b" /><text x="233" y="314" text-anchor="middle" style="font-family:Arial,sans-serif;font-size:9px;font-weight:700;fill:#ffffff">FK</text>
<text x="325" y="314" style="font-family:Consolas,monospace;font-size:12px;font-weight:500;fill:#66758a" >composite FK -&gt; measurement_units</text>
<line x1="14" y1="326" x2="746" y2="326" style="stroke:#e7edf5;stroke-width:1" />
<text x="20" y="344" style="font-family:Consolas,monospace;font-size:13px;font-weight:500;fill:#25364d" >quantity / unit_price</text>
<text x="325" y="344" style="font-family:Consolas,monospace;font-size:12px;font-weight:500;fill:#66758a" >numeric, CHECK &gt; 0</text>
<line x1="14" y1="356" x2="746" y2="356" style="stroke:#e7edf5;stroke-width:1" />
<text x="20" y="374" style="font-family:Consolas,monospace;font-size:13px;font-weight:500;fill:#25364d" >total_price</text>
<text x="325" y="374" style="font-family:Consolas,monospace;font-size:12px;font-weight:500;fill:#66758a" >GENERATED AS quantity * unit_price</text>
</g>
<g transform="translate(1340 540)">
<rect x="0" y="0" width="510" height="302" rx="12" ry="12" style="fill:#ffffff;stroke:#d7e2ef;stroke-width:1.6" />
<rect x="0" y="0" width="510" height="48" rx="12" ry="12" fill="#ea580c" />
<path d="M0 36 H510 V48 H0 Z" fill="#ea580c" />
<text x="18" y="25" style="font-family:Arial,sans-serif;font-size:18px;font-weight:700;fill:#ffffff" >shipments</text>
<text x="18" y="41" style="font-family:Arial,sans-serif;font-size:11px;font-weight:500;fill:#eaf2ff" >warehouse.shipments</text>
<text x="20" y="74" style="font-family:Consolas,monospace;font-size:13px;font-weight:500;fill:#25364d" >shipment_number</text>
<rect x="220" y="62" width="26" height="16" rx="4" fill="#ea580c" /><text x="233" y="74" text-anchor="middle" style="font-family:Arial,sans-serif;font-size:9px;font-weight:700;fill:#ffffff">PK</text>
<text x="270" y="74" style="font-family:Consolas,monospace;font-size:11px;font-weight:500;fill:#66758a" >integer</text>
<line x1="14" y1="86" x2="496" y2="86" style="stroke:#e7edf5;stroke-width:1" />
<text x="20" y="104" style="font-family:Consolas,monospace;font-size:13px;font-weight:500;fill:#25364d" >shipment_date</text>
<text x="270" y="104" style="font-family:Consolas,monospace;font-size:11px;font-weight:500;fill:#66758a" >date NOT NULL</text>
<line x1="14" y1="116" x2="496" y2="116" style="stroke:#e7edf5;stroke-width:1" />
<text x="20" y="134" style="font-family:Consolas,monospace;font-size:13px;font-weight:500;fill:#25364d" >destination</text>
<text x="270" y="134" style="font-family:Consolas,monospace;font-size:11px;font-weight:500;fill:#66758a" >varchar(200) NOT NULL</text>
<line x1="14" y1="146" x2="496" y2="146" style="stroke:#e7edf5;stroke-width:1" />
<text x="20" y="164" style="font-family:Consolas,monospace;font-size:13px;font-weight:500;fill:#25364d" >material_code</text>
<rect x="220" y="152" width="26" height="16" rx="4" fill="#64748b" /><text x="233" y="164" text-anchor="middle" style="font-family:Arial,sans-serif;font-size:9px;font-weight:700;fill:#ffffff">FK</text>
<text x="270" y="164" style="font-family:Consolas,monospace;font-size:11px;font-weight:500;fill:#66758a" >varchar(20) -&gt; materials</text>
<line x1="14" y1="176" x2="496" y2="176" style="stroke:#e7edf5;stroke-width:1" />
<text x="20" y="194" style="font-family:Consolas,monospace;font-size:13px;font-weight:500;fill:#25364d" >unit_code</text>
<rect x="220" y="182" width="26" height="16" rx="4" fill="#64748b" /><text x="233" y="194" text-anchor="middle" style="font-family:Arial,sans-serif;font-size:9px;font-weight:700;fill:#ffffff">FK</text>
<text x="270" y="194" style="font-family:Consolas,monospace;font-size:11px;font-weight:500;fill:#66758a" >composite FK -&gt; measurement_units</text>
<line x1="14" y1="206" x2="496" y2="206" style="stroke:#e7edf5;stroke-width:1" />
<text x="20" y="224" style="font-family:Consolas,monospace;font-size:13px;font-weight:500;fill:#25364d" >quantity</text>
<text x="270" y="224" style="font-family:Consolas,monospace;font-size:11px;font-weight:500;fill:#66758a" >numeric(18,3), CHECK &gt; 0</text>
<line x1="14" y1="236" x2="496" y2="236" style="stroke:#e7edf5;stroke-width:1" />
<text x="20" y="254" style="font-family:Consolas,monospace;font-size:13px;font-weight:500;fill:#25364d" >document_number</text>
<text x="270" y="254" style="font-family:Consolas,monospace;font-size:11px;font-weight:500;fill:#66758a" >varchar(50) NOT NULL</text>
<line x1="14" y1="266" x2="496" y2="266" style="stroke:#e7edf5;stroke-width:1" />
<text x="20" y="284" style="font-family:Consolas,monospace;font-size:13px;font-weight:500;fill:#25364d" >comment</text>
<text x="270" y="284" style="font-family:Consolas,monospace;font-size:11px;font-weight:500;fill:#66758a" >varchar(300) DEFAULT &#x27;&#x27;</text>
</g>
<g transform="translate(1320 910)">
<rect x="0" y="0" width="500" height="190" rx="16" ry="16" style="fill:#ffffff;stroke:#94a3b8;stroke-width:1.8;stroke-dasharray:8 7" />
<text x="28" y="44" style="font-family:Arial,sans-serif;font-size:18px;font-weight:700;fill:#22344d" >Auth Storage</text>
<text x="28" y="78" style="font-family:Arial,sans-serif;font-size:13px;font-weight:500;fill:#66758a" >Auth users are not persisted in PostgreSQL.</text>
<text x="28" y="104" style="font-family:Arial,sans-serif;font-size:13px;font-weight:500;fill:#66758a" >Seed admin/employee accounts come from appsettings.json.</text>
<text x="28" y="130" style="font-family:Arial,sans-serif;font-size:13px;font-weight:500;fill:#66758a" >Registration/admin-created users live in AuthService memory.</text>
<text x="28" y="156" style="font-family:Arial,sans-serif;font-size:13px;font-weight:500;fill:#66758a" >No SQL table named users exists in database/warehouse.sql.</text>
</g>
<g transform="translate(80 840)">
<rect x="0" y="0" width="340" height="210" rx="16" ry="16" style="fill:#ffffff;stroke:#d7e2ef;stroke-width:1.6" />
<text x="28" y="44" style="font-family:Arial,sans-serif;font-size:18px;font-weight:700;fill:#22344d" >Analysis Notes</text>
<text x="28" y="78" style="font-family:Arial,sans-serif;font-size:13px;font-weight:500;fill:#66758a" >1. storage_units is the receipt/fact table.</text>
<text x="28" y="104" style="font-family:Arial,sans-serif;font-size:13px;font-weight:500;fill:#66758a" >2. shipments stores outgoing material operations.</text>
<text x="28" y="130" style="font-family:Arial,sans-serif;font-size:13px;font-weight:500;fill:#66758a" >3. measurement_units has composite PK.</text>
<text x="28" y="156" style="font-family:Arial,sans-serif;font-size:13px;font-weight:500;fill:#66758a" >4. total_price is a generated stored column.</text>
<text x="28" y="182" style="font-family:Arial,sans-serif;font-size:13px;font-weight:500;fill:#66758a" >5. account changes sync into storage_units.</text>
</g>
<!-- relationships -->
<path d="M300 492 L300 675 L605 675 L605 705" style="stroke:#587089;stroke-width:2.3;fill:none;marker-end:url(#arrow);stroke-linecap:round;stroke-linejoin:round" />
<text x="340" y="662" style="font-family:Arial,sans-serif;font-size:12px;font-weight:600;fill:#587089" >supplier_code</text>
<path d="M865 342 L865 435" style="stroke:#587089;stroke-width:2.3;fill:none;marker-end:url(#arrow);stroke-linecap:round;stroke-linejoin:round" />
<text x="884" y="395" style="font-family:Arial,sans-serif;font-size:12px;font-weight:600;fill:#587089" >material_code</text>
<path d="M990 342 L1130 342 L1130 650 L980 650 L980 705" style="stroke:#587089;stroke-width:2.3;fill:none;marker-end:url(#arrow);stroke-linecap:round;stroke-linejoin:round" />
<text x="1010" y="628" style="font-family:Arial,sans-serif;font-size:12px;font-weight:600;fill:#587089" >material_code</text>
<path d="M885 601 L885 705" style="stroke:#587089;stroke-width:2.3;fill:none;marker-end:url(#arrow);stroke-linecap:round;stroke-linejoin:round" />
<text x="700" y="676" style="font-family:Arial,sans-serif;font-size:12px;font-weight:600;fill:#587089" >material_code + unit_code</text>
<path d="M1495 277 L1495 500 L1145 500 L1145 705" style="stroke:#587089;stroke-width:2.3;fill:none;marker-end:url(#arrow);stroke-linecap:round;stroke-linejoin:round" />
<text x="1224" y="487" style="font-family:Arial,sans-serif;font-size:12px;font-weight:600;fill:#587089" >document_type_code</text>
<path d="M1040 342 L1220 342 L1220 640 L1340 640" style="stroke:#587089;stroke-width:2.3;fill:none;marker-end:url(#arrow);stroke-linecap:round;stroke-linejoin:round" />
<text x="1240" y="608" style="font-family:Arial,sans-serif;font-size:12px;font-weight:600;fill:#587089" >material_code</text>
<path d="M1100 535 L1305 535 L1305 700 L1340 700" style="stroke:#587089;stroke-width:2.3;fill:none;marker-end:url(#arrow);stroke-linecap:round;stroke-linejoin:round" />
<text x="1150" y="522" style="font-family:Arial,sans-serif;font-size:12px;font-weight:600;fill:#587089" >material_code + unit_code</text>
<text x="260" y="520" style="font-family:Arial,sans-serif;font-size:12px;font-weight:600;fill:#587089" >1</text>
<text x="612" y="694" style="font-family:Arial,sans-serif;font-size:12px;font-weight:600;fill:#587089" >0..N</text>
<text x="875" y="366" style="font-family:Arial,sans-serif;font-size:12px;font-weight:600;fill:#587089" >1</text>
<text x="875" y="425" style="font-family:Arial,sans-serif;font-size:12px;font-weight:600;fill:#587089" >0..N</text>
<text x="1110" y="366" style="font-family:Arial,sans-serif;font-size:12px;font-weight:600;fill:#587089" >1</text>
<text x="990" y="694" style="font-family:Arial,sans-serif;font-size:12px;font-weight:600;fill:#587089" >0..N</text>
<text x="895" y="624" style="font-family:Arial,sans-serif;font-size:12px;font-weight:600;fill:#587089" >1</text>
<text x="895" y="694" style="font-family:Arial,sans-serif;font-size:12px;font-weight:600;fill:#587089" >0..N</text>
<text x="1505" y="305" style="font-family:Arial,sans-serif;font-size:12px;font-weight:600;fill:#587089" >1</text>
<text x="1155" y="694" style="font-family:Arial,sans-serif;font-size:12px;font-weight:600;fill:#587089" >0..N</text>
<text x="1088" y="250" style="font-family:Arial,sans-serif;font-size:12px;font-weight:600;fill:#587089" >1</text>
<text x="1310" y="626" style="font-family:Arial,sans-serif;font-size:12px;font-weight:600;fill:#587089" >0..N</text>
<text x="1112" y="555" style="font-family:Arial,sans-serif;font-size:12px;font-weight:600;fill:#587089" >1</text>
<text x="1310" y="686" style="font-family:Arial,sans-serif;font-size:12px;font-weight:600;fill:#587089" >0..N</text>
<text x="72" y="1190" style="font-family:Arial,sans-serif;font-size:12px;font-weight:500;fill:#66758a" >Legend: arrows show parent PK -&gt; child FK, PK = primary key, FK = foreign key, UQ = unique, generated = calculated stored column.</text>
<text x="72" y="1212" style="font-family:Arial,sans-serif;font-size:12px;font-weight:500;fill:#66758a" >Dashed block marks application-level auth data, not a PostgreSQL table.</text>
</svg>
